<svg xmlns="http://www.w3.org/2000/svg" width="256" height="256" viewBox="0 0 256 256" role="img" aria-labelledby="title desc"><title id="title">Double</title><desc id="desc">Original collectible arcade pictogram; dark navy keyline, dimensional metal and enamel. Transparent background.</desc><defs>
<linearGradient id="gold" x1="0" y1="0" x2=".8" y2="1"><stop stop-color="#FFF0A3"/><stop offset=".42" stop-color="#F5C75C"/><stop offset="1" stop-color="#B87528"/></linearGradient>
<linearGradient id="teal" x2=".8" y2="1"><stop stop-color="#65E8CD"/><stop offset=".48" stop-color="#26BCAA"/><stop offset="1" stop-color="#10776F"/></linearGradient>
<linearGradient id="coral" x2=".6" y2="1"><stop stop-color="#FFBA98"/><stop offset=".5" stop-color="#FF785F"/><stop offset="1" stop-color="#C34847"/></linearGradient>
<linearGradient id="wood" x2="0" y2="1"><stop stop-color="#286576"/><stop offset="1" stop-color="#183D52"/></linearGradient>
<linearGradient id="inner" x2="0" y2="1"><stop stop-color="#11253E"/><stop offset="1" stop-color="#3B6F70"/></linearGradient>
<radialGradient id="glow"><stop stop-color="#FFF0A3" stop-opacity=".75"/><stop offset="1" stop-color="#FFF0A3" stop-opacity="0"/></radialGradient>
</defs><g transform=""><ellipse cx="92" cy="120" rx="60" ry="60" fill="#B87528" stroke="#12253E" stroke-width="6"/><ellipse cx="92" cy="113" rx="60" ry="60" fill="url(#gold)" stroke="#12253E" stroke-width="5"/><ellipse cx="92" cy="113" rx="45.6" ry="45.6" fill="none" stroke="#12253E" stroke-width="3"/><path d="M 65.0 89.6 Q 92 66.8 116.0 87.8" fill="none" stroke="#FFF5C2" stroke-width="4" stroke-linecap="round" stroke-linejoin="round" /><path d="M 92 87.2 L 108.8 113 L 92 138.8 L 75.2 113 Z" fill="url(#teal)" stroke="#12253E" stroke-width="4" stroke-linecap="round" stroke-linejoin="round" /></g><g transform=""><ellipse cx="158" cy="145" rx="67" ry="67" fill="#B87528" stroke="#12253E" stroke-width="6"/><ellipse cx="158" cy="138" rx="67" ry="67" fill="url(#gold)" stroke="#12253E" stroke-width="5"/><ellipse cx="158" cy="138" rx="50.92" ry="50.92" fill="none" stroke="#12253E" stroke-width="3"/><path d="M 127.85 111.87 Q 158 86.41 184.8 109.86" fill="none" stroke="#FFF5C2" stroke-width="4" stroke-linecap="round" stroke-linejoin="round" /><path d="M 158 109.19 L 176.76 138 L 158 166.81 L 139.24 138 Z" fill="url(#teal)" stroke="#12253E" stroke-width="4" stroke-linecap="round" stroke-linejoin="round" /></g><path d="M 47 150 L 63 135 L 80 151 L 97 135 L 113 150 L 96 168 L 113 185 L 97 201 L 80 184 L 63 201 L 47 185 L 64 168 Z" fill="url(#coral)" stroke="#12253E" stroke-width="6" stroke-linecap="round" stroke-linejoin="round" /><path d="M 123 120 Q 126 90 157 90 Q 193 90 193 119 Q 193 134 173 148 L 153 164 H 195 V 188 H 120 V 166 L 159 134 Q 171 125 167 119 Q 160 108 146 125 Z" fill="#FFF0A3" stroke="#12253E" stroke-width="6" stroke-linecap="round" stroke-linejoin="round" /><path d="M 198 44 Q 200 56 212 58 Q 200 60 198 72 Q 196 60 184 58 Q 196 56 198 44 Z" fill="#65E8CD" stroke="#12253E" stroke-width="3" stroke-linecap="round" stroke-linejoin="round" /></svg>