<svg xmlns="http://www.w3.org/2000/svg" width="256" height="256" viewBox="0 0 256 256" role="img" aria-labelledby="title desc"><title id="title">Shield</title><desc id="desc">Original collectible arcade pictogram; dark navy keyline, dimensional metal and enamel. Transparent background.</desc><defs>
<linearGradient id="gold" x1="0" y1="0" x2=".8" y2="1"><stop stop-color="#FFF0A3"/><stop offset=".42" stop-color="#F5C75C"/><stop offset="1" stop-color="#B87528"/></linearGradient>
<linearGradient id="teal" x2=".8" y2="1"><stop stop-color="#65E8CD"/><stop offset=".48" stop-color="#26BCAA"/><stop offset="1" stop-color="#10776F"/></linearGradient>
<linearGradient id="coral" x2=".6" y2="1"><stop stop-color="#FFBA98"/><stop offset=".5" stop-color="#FF785F"/><stop offset="1" stop-color="#C34847"/></linearGradient>
<linearGradient id="wood" x2="0" y2="1"><stop stop-color="#286576"/><stop offset="1" stop-color="#183D52"/></linearGradient>
<linearGradient id="inner" x2="0" y2="1"><stop stop-color="#11253E"/><stop offset="1" stop-color="#3B6F70"/></linearGradient>
<radialGradient id="glow"><stop stop-color="#FFF0A3" stop-opacity=".75"/><stop offset="1" stop-color="#FFF0A3" stop-opacity="0"/></radialGradient>
</defs><path d="M 128 28 Q 173 58 214 57 L 204 136 Q 194 186 128 226 Q 62 186 52 136 L 42 57 Q 85 58 128 28 Z" fill="url(#gold)" stroke="#12253E" stroke-width="8" stroke-linecap="round" stroke-linejoin="round" /><path d="M 128 49 Q 161 72 191 75 L 183 130 Q 175 168 128 200 Q 81 168 73 130 L 65 75 Q 95 72 128 49 Z" fill="url(#teal)" stroke="#12253E" stroke-width="5" stroke-linecap="round" stroke-linejoin="round" /><path d="M 128 60 V 188 Q 85 157 83 122 L 77 85 Q 107 78 128 60 Z" fill="#77E5CD" stroke="#12253E" stroke-width="0" stroke-linecap="round" stroke-linejoin="round" /><path d="M 94 119 L 117 143 L 161 96" fill="none" stroke="#12253E" stroke-width="12" stroke-linecap="round" stroke-linejoin="round" /><path d="M 95 115 L 117 137 L 160 92" fill="none" stroke="#FFF0A3" stroke-width="7" stroke-linecap="round" stroke-linejoin="round" /></svg>