<svg xmlns="http://www.w3.org/2000/svg" width="960" height="420" viewBox="0 0 960 420" role="img" aria-labelledby="title desc"><title id="title">PinPlay Cup</title><desc id="desc">Original PinPlay Cup wordmark. Custom outlined vector letters, trophy crest and enamel championship ribbon. No text elements or font dependencies.</desc><defs>
<linearGradient id="gold" x1="0" y1="0" x2=".8" y2="1"><stop stop-color="#FFF0A3"/><stop offset=".42" stop-color="#F5C75C"/><stop offset="1" stop-color="#B87528"/></linearGradient>
<linearGradient id="teal" x2=".8" y2="1"><stop stop-color="#65E8CD"/><stop offset=".48" stop-color="#26BCAA"/><stop offset="1" stop-color="#10776F"/></linearGradient>
<linearGradient id="coral" x2=".6" y2="1"><stop stop-color="#FFBA98"/><stop offset=".5" stop-color="#FF785F"/><stop offset="1" stop-color="#C34847"/></linearGradient>
<linearGradient id="wood" x2="0" y2="1"><stop stop-color="#286576"/><stop offset="1" stop-color="#183D52"/></linearGradient>
<linearGradient id="inner" x2="0" y2="1"><stop stop-color="#11253E"/><stop offset="1" stop-color="#3B6F70"/></linearGradient>
<radialGradient id="glow"><stop stop-color="#FFF0A3" stop-opacity=".75"/><stop offset="1" stop-color="#FFF0A3" stop-opacity="0"/></radialGradient>
</defs><path d="M 232 277 L 187 258 L 198 303 L 175 329 L 260 329 L 269 284 Z" fill="url(#coral)" stroke="#12253E" stroke-width="8" stroke-linecap="round" stroke-linejoin="round" /><path d="M 728 277 L 773 258 L 762 303 L 785 329 L 700 329 L 691 284 Z" fill="url(#coral)" stroke="#12253E" stroke-width="8" stroke-linecap="round" stroke-linejoin="round" /><path d="M 441 30 H519 V60 Q515 86 480 98 Q445 86 441 60 Z" fill="url(#gold)" stroke="#12253E" stroke-width="7" stroke-linecap="round" stroke-linejoin="round" /><path d="M 441 39 H420 Q417 71 451 73 M 519 39 H540 Q543 71 509 73" fill="none" stroke="#12253E" stroke-width="8" stroke-linecap="round" stroke-linejoin="round" /><path d="M 480 99 V114 M 457 118 H503" fill="none" stroke="#12253E" stroke-width="9" stroke-linecap="round" stroke-linejoin="round" /><path d="M 480 42 L486 53 L500 55 L490 65 L492 79 L480 72 L468 79 L470 65 L460 55 L474 53 Z" fill="url(#teal)" stroke="#12253E" stroke-width="3" stroke-linecap="round" stroke-linejoin="round" /><g transform="translate(72.0 142) scale(1.7)"><path d="M0 0 H43 Q60 0 60 19 V34 Q60 53 42 53 H22 V80 H0 Z M22 18 V35 H36 Q40 35 40 30 V23 Q40 18 36 18 Z" fill="#12253E" stroke="#12253E" stroke-width="7" stroke-linecap="round" stroke-linejoin="round" fill-rule="evenodd"/></g><g transform="translate(192.7 142) scale(1.7)"><path d="M0 0 H24 V80 H0 Z" fill="#12253E" stroke="#12253E" stroke-width="7" stroke-linecap="round" stroke-linejoin="round" fill-rule="evenodd"/></g><g transform="translate(248.79999999999998 142) scale(1.7)"><path d="M0 80 V0 H22 L45 43 V0 H66 V80 H44 L21 37 V80 Z" fill="#12253E" stroke="#12253E" stroke-width="7" stroke-linecap="round" stroke-linejoin="round" fill-rule="evenodd"/></g><g transform="translate(376.29999999999995 142) scale(1.7)"><path d="M0 0 H43 Q60 0 60 19 V34 Q60 53 42 53 H22 V80 H0 Z M22 18 V35 H36 Q40 35 40 30 V23 Q40 18 36 18 Z" fill="#12253E" stroke="#12253E" stroke-width="7" stroke-linecap="round" stroke-linejoin="round" fill-rule="evenodd"/></g><g transform="translate(496.99999999999994 142) scale(1.7)"><path d="M0 0 H23 V59 H59 V80 H0 Z" fill="#12253E" stroke="#12253E" stroke-width="7" stroke-linecap="round" stroke-linejoin="round" fill-rule="evenodd"/></g><g transform="translate(612.5999999999999 142) scale(1.7)"><path d="M0 80 L23 0 H51 L75 80 H51 L47 62 H26 L22 80 Z M31 44 H43 L37 20 Z" fill="#12253E" stroke="#12253E" stroke-width="7" stroke-linecap="round" stroke-linejoin="round" fill-rule="evenodd"/></g><g transform="translate(755.3999999999999 142) scale(1.7)"><path d="M0 0 H25 L39 29 L53 0 H78 L51 51 V80 H28 V51 Z" fill="#12253E" stroke="#12253E" stroke-width="7" stroke-linecap="round" stroke-linejoin="round" fill-rule="evenodd"/></g><g transform="translate(72.0 131) scale(1.7)"><path d="M0 0 H43 Q60 0 60 19 V34 Q60 53 42 53 H22 V80 H0 Z M22 18 V35 H36 Q40 35 40 30 V23 Q40 18 36 18 Z" fill="url(#gold)" stroke="#12253E" stroke-width="7" stroke-linecap="round" stroke-linejoin="round" fill-rule="evenodd"/></g><g transform="translate(192.7 131) scale(1.7)"><path d="M0 0 H24 V80 H0 Z" fill="url(#gold)" stroke="#12253E" stroke-width="7" stroke-linecap="round" stroke-linejoin="round" fill-rule="evenodd"/></g><g transform="translate(248.79999999999998 131) scale(1.7)"><path d="M0 80 V0 H22 L45 43 V0 H66 V80 H44 L21 37 V80 Z" fill="url(#gold)" stroke="#12253E" stroke-width="7" stroke-linecap="round" stroke-linejoin="round" fill-rule="evenodd"/></g><g transform="translate(376.29999999999995 131) scale(1.7)"><path d="M0 0 H43 Q60 0 60 19 V34 Q60 53 42 53 H22 V80 H0 Z M22 18 V35 H36 Q40 35 40 30 V23 Q40 18 36 18 Z" fill="url(#gold)" stroke="#12253E" stroke-width="7" stroke-linecap="round" stroke-linejoin="round" fill-rule="evenodd"/></g><g transform="translate(496.99999999999994 131) scale(1.7)"><path d="M0 0 H23 V59 H59 V80 H0 Z" fill="url(#gold)" stroke="#12253E" stroke-width="7" stroke-linecap="round" stroke-linejoin="round" fill-rule="evenodd"/></g><g transform="translate(612.5999999999999 131) scale(1.7)"><path d="M0 80 L23 0 H51 L75 80 H51 L47 62 H26 L22 80 Z M31 44 H43 L37 20 Z" fill="url(#gold)" stroke="#12253E" stroke-width="7" stroke-linecap="round" stroke-linejoin="round" fill-rule="evenodd"/></g><g transform="translate(755.3999999999999 131) scale(1.7)"><path d="M0 0 H25 L39 29 L53 0 H78 L51 51 V80 H28 V51 Z" fill="url(#gold)" stroke="#12253E" stroke-width="7" stroke-linecap="round" stroke-linejoin="round" fill-rule="evenodd"/></g><path d="M 322 286 L 352 268 H608 L638 286 L608 381 H352 Z" fill="url(#wood)" stroke="#12253E" stroke-width="8" stroke-linecap="round" stroke-linejoin="round" /><g transform="translate(387.55 290) scale(0.86)"><path d="M63 7 L55 28 Q41 17 30 23 Q20 29 22 44 Q22 62 39 62 Q48 62 57 55 L65 74 Q51 83 34 81 Q0 80 0 42 Q0 6 29 0 Q48 -4 63 7 Z" fill="url(#teal)" stroke="#12253E" stroke-width="7" stroke-linecap="round" stroke-linejoin="round" fill-rule="evenodd"/></g><g transform="translate(451.19 290) scale(0.86)"><path d="M0 0 H23 V51 Q23 62 35 62 Q47 62 47 51 V0 H70 V53 Q70 82 35 82 Q0 82 0 53 Z" fill="url(#teal)" stroke="#12253E" stroke-width="7" stroke-linecap="round" stroke-linejoin="round" fill-rule="evenodd"/></g><g transform="translate(519.13 290) scale(0.86)"><path d="M0 0 H43 Q60 0 60 19 V34 Q60 53 42 53 H22 V80 H0 Z M22 18 V35 H36 Q40 35 40 30 V23 Q40 18 36 18 Z" fill="url(#teal)" stroke="#12253E" stroke-width="7" stroke-linecap="round" stroke-linejoin="round" fill-rule="evenodd"/></g><path d="M 195 78 Q 197 94 213 96 Q 197 98 195 114 Q 193 98 177 96 Q 193 94 195 78 Z" fill="#65E8CD" stroke="#12253E" stroke-width="3" stroke-linecap="round" stroke-linejoin="round" /><path d="M 764 94 Q 766 109 781 111 Q 766 113 764 128 Q 762 113 747 111 Q 762 109 764 94 Z" fill="#FFF0A3" stroke="#12253E" stroke-width="3" stroke-linecap="round" stroke-linejoin="round" /><path d="M 302 84 L326 101 M 658 84 L634 101" fill="none" stroke="#F5C75C" stroke-width="7" stroke-linecap="round" stroke-linejoin="round" /></svg>