<svg xmlns="http://www.w3.org/2000/svg" width="512" height="512" viewBox="0 0 512 512" role="img" aria-labelledby="title desc"><title id="title">Chest / closed</title><desc id="desc">Brass-banded teal treasure chest. closed. Constant registered chest base; transparent canvas.</desc><defs>
<linearGradient id="gold" x1="0" y1="0" x2=".8" y2="1"><stop stop-color="#FFF0A3"/><stop offset=".42" stop-color="#F5C75C"/><stop offset="1" stop-color="#B87528"/></linearGradient>
<linearGradient id="teal" x2=".8" y2="1"><stop stop-color="#65E8CD"/><stop offset=".48" stop-color="#26BCAA"/><stop offset="1" stop-color="#10776F"/></linearGradient>
<linearGradient id="coral" x2=".6" y2="1"><stop stop-color="#FFBA98"/><stop offset=".5" stop-color="#FF785F"/><stop offset="1" stop-color="#C34847"/></linearGradient>
<linearGradient id="wood" x2="0" y2="1"><stop stop-color="#286576"/><stop offset="1" stop-color="#183D52"/></linearGradient>
<linearGradient id="inner" x2="0" y2="1"><stop stop-color="#11253E"/><stop offset="1" stop-color="#3B6F70"/></linearGradient>
<radialGradient id="glow"><stop stop-color="#FFF0A3" stop-opacity=".75"/><stop offset="1" stop-color="#FFF0A3" stop-opacity="0"/></radialGradient>
</defs><path d="M 78 282 L 83 227 Q 89 147 164 141 H 348 Q 423 147 429 227 L 434 282 Z" fill="url(#wood)" stroke="#12253E" stroke-width="9" stroke-linecap="round" stroke-linejoin="round" /><path d="M 94 230 Q 106 165 165 164 H 347 Q 405 170 417 230" fill="none" stroke="#438794" stroke-width="5" stroke-linecap="round" stroke-linejoin="round" /><path d="M 85 239 H 428 M 110 194 H 404" fill="none" stroke="#12253E" stroke-width="5" stroke-linecap="round" stroke-linejoin="round" /><path d="M 133 281 V 216 Q 135 173 158 145 H 181 Q 153 180 155 222 V 281 Z" fill="url(#gold)" stroke="#12253E" stroke-width="6" stroke-linecap="round" stroke-linejoin="round" /><path d="M 142 258 V 222 Q 141 188 162 161" fill="none" stroke="#FFF0A3" stroke-width="4" stroke-linecap="round" stroke-linejoin="round" /><path d="M 337 281 V 216 Q 339 173 362 145 H 385 Q 357 180 359 222 V 281 Z" fill="url(#gold)" stroke="#12253E" stroke-width="6" stroke-linecap="round" stroke-linejoin="round" /><path d="M 346 258 V 222 Q 345 188 366 161" fill="none" stroke="#FFF0A3" stroke-width="4" stroke-linecap="round" stroke-linejoin="round" /><path d="M 79 280 L 112 422 Q 115 437 137 441 H 375 Q 397 437 401 419 L 433 280 Z" fill="url(#wood)" stroke="#12253E" stroke-width="9" stroke-linecap="round" stroke-linejoin="round" /><path d="M 99 302 L 125 413 Q 129 423 141 423 H 368" fill="none" stroke="#38828A" stroke-width="5" stroke-linecap="round" stroke-linejoin="round" /><path d="M 106 352 H 409 M 117 395 H 399" fill="none" stroke="#12253E" stroke-width="5" stroke-linecap="round" stroke-linejoin="round" /><path d="M 79 280 H 433 L 427 310 H 85 Z" fill="url(#gold)" stroke="#12253E" stroke-width="7" stroke-linecap="round" stroke-linejoin="round" /><path d="M 100 286 H 412" fill="none" stroke="#FFF0A3" stroke-width="4" stroke-linecap="round" stroke-linejoin="round" /><path d="M 132 310 H 162 L 171 438 H 141 Z" fill="url(#gold)" stroke="#12253E" stroke-width="6" stroke-linecap="round" stroke-linejoin="round" /><ellipse cx="147" cy="329" rx="4" ry="4" fill="#12253E" stroke="#12253E" stroke-width="0"/><ellipse cx="147" cy="408" rx="4" ry="4" fill="#12253E" stroke="#12253E" stroke-width="0"/><path d="M 340 310 H 370 L 349 438 H 319 Z" fill="url(#gold)" stroke="#12253E" stroke-width="6" stroke-linecap="round" stroke-linejoin="round" /><ellipse cx="345" cy="329" rx="4" ry="4" fill="#12253E" stroke="#12253E" stroke-width="0"/><ellipse cx="345" cy="408" rx="4" ry="4" fill="#12253E" stroke="#12253E" stroke-width="0"/><path d="M 112 418 L 157 423 L 158 446 H 125 Q 110 445 112 418 Z" fill="url(#gold)" stroke="#12253E" stroke-width="6" stroke-linecap="round" stroke-linejoin="round" /><path d="M 354 423 L 400 418 Q 402 445 387 446 H 353 Z" fill="url(#gold)" stroke="#12253E" stroke-width="6" stroke-linecap="round" stroke-linejoin="round" /><rect x="219" y="295" width="75" height="77" rx="14" fill="url(#gold)" stroke="#12253E" stroke-width="7"/><rect x="231" y="305" width="51" height="52" rx="10" fill="#F8D36E" stroke="#12253E" stroke-width="3"/><ellipse cx="256" cy="324" rx="9" ry="9" fill="#12253E" stroke="#12253E" stroke-width="0"/><path d="M 252 327 L 247 343 H 265 L 260 327 Z" fill="#12253E" stroke="#12253E" stroke-width="0" stroke-linecap="round" stroke-linejoin="round" /><path d="M 190 386 L 202 390 M 308 405 L 322 401 M 177 334 H 194" fill="none" stroke="#42828B" stroke-width="3" stroke-linecap="round" stroke-linejoin="round" /><path d="M 398 148 Q 400 159 411 161 Q 400 163 398 174 Q 396 163 385 161 Q 396 159 398 148 Z" fill="#FFF0A3" stroke="#12253E" stroke-width="3" stroke-linecap="round" stroke-linejoin="round" /></svg>